<?xml version="1.0" encoding="utf-8"?>
<!-- Generator: Adobe Illustrator 25.0.0, SVG Export Plug-In . SVG Version: 6.00 Build 0)  -->
<svg version="1.1" id="Layer_1" xmlns="http://www.w3.org/2000/svg" xmlns:xlink="http://www.w3.org/1999/xlink" x="0px" y="0px"
	 viewBox="0 0 16 16" style="enable-background:new 0 0 16 16;" xml:space="preserve">
<style type="text/css">
	.st0{fill:#424242;}
</style>
<path class="st0" d="M12.5,2.9c0.3,0,0.5,0.2,0.5,0.5s-0.2,0.5-0.5,0.5c0,0-0.1,0-0.1,0l-0.2,0l-0.1-0.1C12,3.6,12,3.5,12,3.4
	C12,3.1,12.2,2.9,12.5,2.9 M4.5,6.5C4.8,6.5,5,6.7,5,7C5,7,5,7.1,4.9,7.2L4.9,7.3L4.7,7.4c-0.1,0-0.1,0.1-0.2,0.1C4.2,7.5,4,7.3,4,7
	C4,6.7,4.2,6.5,4.5,6.5 M8.5,10.4c0,0,0.1,0,0.1,0l0.2,0l0.1,0.1C9,10.7,9,10.8,9,10.9c0,0.3-0.2,0.5-0.5,0.5S8,11.2,8,10.9
	c0-0.1,0-0.1,0.1-0.2l0.1-0.2l0.2-0.1C8.4,10.4,8.4,10.4,8.5,10.4 M2,1H1v13.5L1.5,15H15v-1H2V1L2,1z M12.5,1.9
	c-0.8,0-1.5,0.7-1.5,1.5c0,0.3,0.1,0.6,0.3,0.9L8.9,9.5c-0.1,0-0.2-0.1-0.4-0.1C8.3,9.4,8,9.5,7.9,9.6l-2-2C5.9,7.4,6,7.2,6,7
	c0-0.8-0.7-1.5-1.5-1.5S3,6.2,3,7c0,0.8,0.7,1.5,1.5,1.5c0.2,0,0.5-0.1,0.6-0.2l2,2C7.1,10.5,7,10.7,7,10.9c0,0.8,0.7,1.5,1.5,1.5
	s1.5-0.7,1.5-1.5c0-0.3-0.1-0.6-0.3-0.9l2.4-5.2c0.1,0,0.2,0.1,0.4,0.1c0.8,0,1.5-0.7,1.5-1.5S13.3,1.9,12.5,1.9L12.5,1.9z"/>
</svg>
